# xmcd
#
# Track frame offsets: 
#        150
#        15097
#        33577
#        46012
#        62190
#        77030
#        88605
#        100465
#        115027
#        127127
#
# Disc length: 1854 seconds
#
# Revision: 2
# Processed by: cddbd v1.5.2PL0 Copyright (c) Steve Scherf et al.
# Submitted via: ExactAudioCopy v0.99pb4
#
DISCID=77073c0a
DTITLE=Lonesome Strangers - Land of Opportunity
DYEAR=1997
DGENRE=Alt. Country
TTITLE0=And It Hurts
TTITLE1=Ton Of Shame
TTITLE2=Number 9
TTITLE3=Sharon
TTITLE4=Fine Way To Treat Me
TTITLE5=Tobacco Road
TTITLE6=Lingerin' Thing
TTITLE7=The Truth About You
TTITLE8=Ramblin' Around
TTITLE9=I Don't Believe You've Met My Baby
EXTD=
EXTT0=
EXTT1=
EXTT2=
EXTT3=
EXTT4=
EXTT5=
EXTT6=
EXTT7=
EXTT8=
EXTT9=
PLAYORDER=
